<svg xmlns="http://www.w3.org/2000/svg" version="1.1" xmlns:xlink="http://www.w3.org/1999/xlink" xmlns:svgjs="http://svgjs.com/svgjs" width="1440" height="560" preserveAspectRatio="none" viewBox="0 0 1440 560"><g mask="url(&quot;#SvgjsMask1002&quot;)" fill="none"><rect width="1440" height="560" x="0" y="0" fill="url(#SvgjsLinearGradient1003)"></rect><path d="M1440 0L846.46 0L1440 164.61z" fill="rgba(255, 255, 255, .1)"></path><path d="M846.46 0L1440 164.61L1440 370.06L729.1500000000001 0z" fill="rgba(255, 255, 255, .075)"></path><path d="M729.1500000000001 0L1440 370.06L1440 457.21000000000004L697.32 0z" fill="rgba(255, 255, 255, .05)"></path><path d="M697.32 0L1440 457.21000000000004L1440 457.57000000000005L334.05000000000007 0z" fill="rgba(255, 255, 255, .025)"></path><path d="M0 560L240.95 560L0 545.78z" fill="rgba(0, 0, 0, .1)"></path><path d="M0 545.78L240.95 560L827.3399999999999 560L0 421.43999999999994z" fill="rgba(0, 0, 0, .075)"></path><path d="M0 421.44L827.3399999999999 560L1017.31 560L0 217.02z" fill="rgba(0, 0, 0, .05)"></path><path d="M0 217.01999999999998L1017.31 560L1068.23 560L0 190.67z" fill="rgba(0, 0, 0, .025)"></path></g><defs><mask id="SvgjsMask1002"><rect width="1440" height="560" fill="#ffffff"></rect></mask><linearGradient x1="15.28%" y1="139.29%" x2="84.72%" y2="-39.29%" gradientUnits="userSpaceOnUse" id="SvgjsLinearGradient1003"><stop stop-color="rgba(246, 246, 246, 1)" offset="0"></stop><stop stop-color="rgba(246, 246, 246, 1)" offset="0"></stop><stop stop-color="rgba(246, 246, 246, 1)" offset="0"></stop><stop stop-color="rgba(246, 246, 246, 1)" offset="0.01"></stop></linearGradient></defs></svg>